<?xml version="1.0" encoding="UTF-8" standalone="no"?>
<!-- Generator: Adobe Illustrator 19.0.0, SVG Export Plug-In . SVG Version: 6.00 Build 0)  -->

<svg
   xmlns:dc="http://purl.org/dc/elements/1.1/"
   xmlns:cc="http://creativecommons.org/ns#"
   xmlns:rdf="http://www.w3.org/1999/02/22-rdf-syntax-ns#"
   xmlns:svg="http://www.w3.org/2000/svg"
   xmlns="http://www.w3.org/2000/svg"
   xmlns:sodipodi="http://sodipodi.sourceforge.net/DTD/sodipodi-0.dtd"
   xmlns:inkscape="http://www.inkscape.org/namespaces/inkscape"
   version="1.1"
   id="Layer_1"
   x="0px"
   y="0px"
   viewBox="0 0 512 512"
   style="enable-background:new 0 0 512 512;"
   xml:space="preserve"
   sodipodi:docname="lava-lamp.svg"
   inkscape:version="0.92.1 r15371"><metadata
     id="metadata69"><rdf:RDF><cc:Work
         rdf:about=""><dc:format>image/svg+xml</dc:format><dc:type
           rdf:resource="http://purl.org/dc/dcmitype/StillImage" /></cc:Work></rdf:RDF></metadata><defs
     id="defs67" /><sodipodi:namedview
     pagecolor="#ffffff"
     bordercolor="#666666"
     borderopacity="1"
     objecttolerance="10"
     gridtolerance="10"
     guidetolerance="10"
     inkscape:pageopacity="0"
     inkscape:pageshadow="2"
     inkscape:window-width="1366"
     inkscape:window-height="703"
     id="namedview65"
     showgrid="false"
     inkscape:zoom="0.4609375"
     inkscape:cx="-129.08475"
     inkscape:cy="256"
     inkscape:window-x="0"
     inkscape:window-y="0"
     inkscape:window-maximized="1"
     inkscape:current-layer="Layer_1" /><circle
     style="fill:#000080"
     cx="255.996"
     cy="255.996"
     r="255.996"
     id="circle2" /><path
     style="fill:#00a7ff;fill-opacity:1"
     d="M512,255.999c0-2.207-0.028-4.406-0.084-6.601L290.732,28.215h-69.464l-59.044,229.808  l44.133,121.779l-31.36,88.848l40.079,40.079c13.327,2.141,26.993,3.27,40.925,3.27C397.385,512,512,397.385,512,255.999z"
     id="path4" /><polygon
     style="fill:#00d8ff;fill-opacity:1"
     points="290.732,28.215 221.268,28.215 162.223,258.024 206.356,379.802 305.644,379.802   349.777,258.024 "
     id="polygon6" /><polygon
     style="fill:#00d5ff;fill-opacity:1"
     points="349.777,258.024 290.732,28.215 255.996,28.215 255.996,379.802 305.644,379.802 "
     id="polygon8" /><g
     id="g14"
     style="fill:#ac9393"><polygon
       style="fill:#ac9393"
       points="221.268,28.215 197.436,120.974 314.564,120.974 290.732,28.215  "
       id="polygon10" /><polygon
       style="fill:#ac9393"
       points="305.644,379.802 327.625,319.148 184.375,319.148 206.356,379.802 174.997,468.651    256.001,468.651 337.003,468.651  "
       id="polygon12" /></g><g
     id="g20"><path
       style="fill:#FFC536;"
       d="M304.09,313.585c0-12.977-6.397-24.453-16.203-31.469h0.018c-7.078-5.112-8.565-9.568-8.565-16.426   c0-6.858,7.728-16.678,7.728-16.678h-0.003c4.975-5.307,8.027-12.439,8.027-20.287c0-16.392-13.288-29.68-29.68-29.68   s-29.68,13.288-29.68,29.68c0,7.848,3.052,14.98,8.027,20.287h-0.003c0,0,7.728,9.821,7.728,16.678   c0,6.858-1.487,11.314-8.565,16.426h0.018c-9.806,7.016-16.203,18.492-16.203,31.469c0,1.89,0.142,3.746,0.404,5.563h76.551   C303.948,317.331,304.09,315.474,304.09,313.585z"
       id="path16" /><ellipse
       style="fill:#FFC536;"
       cx="223.406"
       cy="167.014"
       rx="21.244"
       ry="25.551"
       id="ellipse18" /></g><g
     id="g26"><path
       style="fill:#FF8736;"
       d="M265.914,120.974c-0.326,1.686-0.505,3.441-0.505,5.246c0,12.729,8.58,23.048,19.164,23.048   c10.584,0,19.164-10.319,19.164-23.048c0-1.806-0.179-3.56-0.505-5.246H265.914z"
       id="path22" /><path
       style="fill:#FF8736;"
       d="M304.09,313.585c0-12.977-6.397-24.453-16.203-31.469h0.018c-7.078-5.112-8.565-9.568-8.565-16.426   c0-6.858,7.728-16.678,7.728-16.678h-0.003c4.975-5.307,8.027-12.439,8.027-20.287c0-16.392-13.288-29.68-29.68-29.68   c-3.291,0-6.454,0.544-9.413,1.533v118.57h47.689C303.948,317.331,304.09,315.474,304.09,313.585z"
       id="path24" /></g><g
     id="g32"
     style="fill-opacity:1;fill:#916f6f"><polygon
       style="fill:#916f6f;fill-opacity:1"
       points="314.564,120.974 290.732,28.215 255.996,28.215 255.996,120.974  "
       id="polygon28" /><polygon
       style="fill:#916f6f;fill-opacity:1"
       points="337.003,468.651 305.644,379.802 327.625,319.148 255.996,319.148 255.996,468.651    256.001,468.651  "
       id="polygon30" /></g><g
     id="g34" /><g
     id="g36" /><g
     id="g38" /><g
     id="g40" /><g
     id="g42" /><g
     id="g44" /><g
     id="g46" /><g
     id="g48" /><g
     id="g50" /><g
     id="g52" /><g
     id="g54" /><g
     id="g56" /><g
     id="g58" /><g
     id="g60" /><g
     id="g62" /></svg>