<?xml version="1.0" encoding="UTF-8" standalone="no"?><!-- Generator: Gravit.io --><svg xmlns="http://www.w3.org/2000/svg" xmlns:xlink="http://www.w3.org/1999/xlink" style="isolation:isolate" viewBox="0 0 2560 1080" width="2560pt" height="1080pt"><defs><clipPath id="_clipPath_KPKokEI4MlOcVneUF0p7zARl8Z26UD4I"><rect width="2560" height="1080"/></clipPath></defs><g clip-path="url(#_clipPath_KPKokEI4MlOcVneUF0p7zARl8Z26UD4I)"><rect x="0" y="0" width="2560" height="1080" transform="matrix(1,0,0,1,0,0)" fill="rgb(255,183,0)"/><g><g><path d=" M 1209.574 563.447 C 1191.203 519.128 1212.27 468.232 1256.59 449.861 C 1300.909 431.491 1351.805 452.558 1370.176 496.877 C 1388.546 541.197 1367.479 592.093 1323.159 610.463 C 1278.84 628.834 1227.944 607.766 1209.574 563.447 Z " fill="rgb(0,0,0)"/><path d=" M 1396.637 447.214 C 1413.115 447.214 1426.522 433.807 1426.522 417.328 C 1426.522 400.849 1413.115 387.442 1396.637 387.442 C 1380.158 387.442 1366.751 400.849 1366.751 417.328 C 1366.751 433.807 1380.157 447.214 1396.637 447.214 Z " fill="rgb(0,0,0)"/><path d=" M 1202.256 414.446 C 1227.616 395.23 1257.888 385.073 1289.799 385.073 C 1312.882 385.073 1334.95 390.334 1355.39 400.71 L 1364.703 382.365 C 1341.349 370.511 1316.148 364.5 1289.799 364.5 C 1253.365 364.5 1218.797 376.101 1189.831 398.049 C 1161.815 419.278 1140.902 449.434 1130.945 482.963 L 1150.667 488.819 C 1159.385 459.461 1177.706 433.048 1202.256 414.446 L 1202.256 414.446 Z " fill="rgb(0,0,0)"/><path d=" M 1433.293 447.296 L 1415.489 457.604 C 1428.206 479.57 1434.927 504.673 1434.927 530.201 C 1434.927 562.112 1424.77 592.384 1405.554 617.745 C 1386.952 642.295 1360.539 660.616 1331.181 669.334 L 1337.037 689.055 C 1370.566 679.099 1400.722 658.186 1421.951 630.169 C 1443.899 601.204 1455.5 566.635 1455.5 530.201 C 1455.5 501.058 1447.82 472.39 1433.293 447.296 L 1433.293 447.296 Z " fill="rgb(0,0,0)"/><path d=" M 1150.667 571.582 L 1130.945 577.438 C 1138.745 603.705 1153.162 627.884 1172.64 647.36 C 1192.116 666.837 1216.295 681.255 1242.562 689.055 L 1248.418 669.333 C 1225.424 662.505 1204.25 649.876 1187.186 632.813 C 1170.124 615.749 1157.495 594.576 1150.667 571.582 L 1150.667 571.582 Z " fill="rgb(0,0,0)"/><path d=" M 1289.799 655.729 C 1273.321 655.729 1259.914 669.135 1259.914 685.614 C 1259.914 702.093 1273.321 715.5 1289.799 715.5 C 1306.278 715.5 1319.685 702.094 1319.685 685.614 C 1319.685 669.135 1306.278 655.729 1289.799 655.729 Z " fill="rgb(0,0,0)"/><circle vector-effect="non-scaling-stroke" cx="1134.385690673794" cy="530.2006259670824" r="29.885690673793988" fill="rgb(0,0,0)"/></g></g></g></svg>