<?xml version="1.0" encoding="UTF-8" standalone="no"?><!-- Generator: Gravit.io --><svg xmlns="http://www.w3.org/2000/svg" xmlns:xlink="http://www.w3.org/1999/xlink" style="isolation:isolate" viewBox="0 0 3840 2160" width="3840pt" height="2160pt"><defs><clipPath id="_clipPath_EtvDYBCcC6Z8d9CMMSeBtgG1gVe5eTO3"><rect width="3840" height="2160"/></clipPath></defs><g clip-path="url(#_clipPath_EtvDYBCcC6Z8d9CMMSeBtgG1gVe5eTO3)"><rect x="0" y="0" width="3840" height="2160" transform="matrix(1,0,0,1,0,0)" fill="rgb(255,183,0)"/><g><g><path d=" M 1811.25 1116.206 C 1782.883 1047.77 1815.414 969.178 1883.851 940.811 C 1952.287 912.444 2030.878 944.975 2059.245 1013.411 C 2087.612 1081.848 2055.081 1160.439 1986.645 1188.806 C 1918.209 1217.173 1839.617 1184.642 1811.25 1116.206 Z " fill="rgb(0,0,0)"/><path d=" M 2100.105 936.723 C 2125.551 936.723 2146.253 916.022 2146.253 890.575 C 2146.253 865.128 2125.551 844.427 2100.105 844.427 C 2074.66 844.427 2053.957 865.128 2053.957 890.575 C 2053.957 916.022 2074.659 936.723 2100.105 936.723 Z " fill="rgb(0,0,0)"/><path d=" M 1799.951 886.125 C 1839.11 856.452 1885.856 840.767 1935.132 840.767 C 1970.775 840.767 2004.851 848.891 2036.414 864.914 L 2050.794 836.587 C 2014.733 818.281 1975.818 809 1935.132 809 C 1878.871 809 1825.492 826.914 1780.765 860.805 C 1737.504 893.587 1705.21 940.152 1689.836 991.925 L 1720.29 1000.968 C 1733.751 955.634 1762.042 914.85 1799.951 886.125 L 1799.951 886.125 Z " fill="rgb(0,0,0)"/><path d=" M 2156.708 936.85 L 2129.216 952.767 C 2148.853 986.686 2159.233 1025.449 2159.233 1064.868 C 2159.233 1114.144 2143.548 1160.89 2113.875 1200.051 C 2085.15 1237.959 2044.365 1266.25 1999.032 1279.712 L 2008.074 1310.165 C 2059.848 1294.791 2106.413 1262.499 2139.195 1219.236 C 2173.086 1174.509 2191 1121.129 2191 1064.868 C 2191 1019.868 2179.141 975.6 2156.708 936.85 L 2156.708 936.85 Z " fill="rgb(0,0,0)"/><path d=" M 1720.289 1128.767 L 1689.836 1137.81 C 1701.88 1178.37 1724.142 1215.706 1754.218 1245.782 C 1784.294 1275.857 1821.63 1298.12 1862.19 1310.164 L 1871.233 1279.711 C 1835.726 1269.167 1803.03 1249.667 1776.681 1223.318 C 1750.333 1196.969 1730.832 1164.274 1720.289 1128.767 L 1720.289 1128.767 Z " fill="rgb(0,0,0)"/><path d=" M 1935.132 1258.703 C 1909.686 1258.703 1888.985 1279.405 1888.985 1304.852 C 1888.985 1330.297 1909.686 1351 1935.132 1351 C 1960.577 1351 1981.28 1330.298 1981.28 1304.852 C 1981.28 1279.405 1960.577 1258.703 1935.132 1258.703 Z " fill="rgb(0,0,0)"/><circle vector-effect="non-scaling-stroke" cx="1695.1482744877387" cy="1064.868203060281" r="46.148274487738945" fill="rgb(0,0,0)"/></g></g></g></svg>