<?xml version="1.0" encoding="UTF-8" standalone="no"?><!-- Generator: Gravit.io --><svg xmlns="http://www.w3.org/2000/svg" xmlns:xlink="http://www.w3.org/1999/xlink" style="isolation:isolate" viewBox="0 0 1600 1200" width="1600pt" height="1200pt"><defs><clipPath id="_clipPath_H6OZVzpGqEAQ4W9uuQgQAOxqi9S24pzI"><rect width="1600" height="1200"/></clipPath></defs><g clip-path="url(#_clipPath_H6OZVzpGqEAQ4W9uuQgQAOxqi9S24pzI)"><rect x="0" y="0" width="1600" height="1212" transform="matrix(1,0,0,1,0,0)" fill="rgb(255,183,0)"/><g><g><path d=" M 729.574 629.447 C 711.203 585.128 732.27 534.232 776.59 515.861 C 820.909 497.491 871.805 518.558 890.176 562.877 C 908.546 607.197 887.479 658.093 843.159 676.463 C 798.84 694.834 747.944 673.766 729.574 629.447 Z " fill="rgb(0,0,0)"/><path d=" M 916.637 513.214 C 933.115 513.214 946.522 499.807 946.522 483.328 C 946.522 466.849 933.115 453.442 916.637 453.442 C 900.158 453.442 886.751 466.849 886.751 483.328 C 886.751 499.807 900.157 513.214 916.637 513.214 Z " fill="rgb(0,0,0)"/><path d=" M 722.256 480.446 C 747.616 461.23 777.888 451.073 809.799 451.073 C 832.882 451.073 854.95 456.334 875.39 466.71 L 884.703 448.365 C 861.349 436.511 836.148 430.5 809.799 430.5 C 773.365 430.5 738.797 442.101 709.831 464.049 C 681.815 485.278 660.902 515.434 650.945 548.963 L 670.667 554.819 C 679.385 525.461 697.706 499.048 722.256 480.446 L 722.256 480.446 Z " fill="rgb(0,0,0)"/><path d=" M 953.293 513.296 L 935.489 523.604 C 948.206 545.57 954.927 570.673 954.927 596.201 C 954.927 628.112 944.77 658.384 925.554 683.745 C 906.952 708.295 880.539 726.616 851.181 735.334 L 857.037 755.055 C 890.566 745.099 920.722 724.186 941.951 696.169 C 963.899 667.204 975.5 632.635 975.5 596.201 C 975.5 567.058 967.82 538.39 953.293 513.296 L 953.293 513.296 Z " fill="rgb(0,0,0)"/><path d=" M 670.667 637.582 L 650.945 643.438 C 658.745 669.705 673.162 693.884 692.64 713.36 C 712.116 732.837 736.295 747.255 762.562 755.055 L 768.418 735.333 C 745.424 728.505 724.25 715.876 707.186 698.813 C 690.124 681.749 677.495 660.576 670.667 637.582 L 670.667 637.582 Z " fill="rgb(0,0,0)"/><path d=" M 809.799 721.729 C 793.321 721.729 779.914 735.135 779.914 751.614 C 779.914 768.093 793.321 781.5 809.799 781.5 C 826.278 781.5 839.685 768.094 839.685 751.614 C 839.685 735.135 826.278 721.729 809.799 721.729 Z " fill="rgb(0,0,0)"/><circle vector-effect="non-scaling-stroke" cx="654.3856906737939" cy="596.2006259670827" r="29.885690673793988" fill="rgb(0,0,0)"/></g></g></g></svg>