<?xml version="1.0"?>
<svg xmlns="http://www.w3.org/2000/svg" xmlns:xlink="http://www.w3.org/1999/xlink" xmlns:svgjs="http://svgjs.com/svgjs" version="1.1" width="512" height="512" x="0" y="0" viewBox="0 0 511.848 511.848" style="enable-background:new 0 0 512 512" xml:space="preserve" class=""><g><g xmlns="http://www.w3.org/2000/svg"><g><path d="m270.214 368.365c-69.88 0-126.73-56.851-126.73-126.731s56.851-126.731 126.73-126.731 126.731 56.851 126.731 126.731-56.851 126.731-126.731 126.731zm0-223.462c-53.337 0-96.73 43.394-96.73 96.731s43.394 96.731 96.73 96.731c53.338 0 96.731-43.394 96.731-96.731s-43.393-96.731-96.731-96.731z" fill="#ffb26b" data-original="#000000" style="" class=""/></g><g><path d="m426.01 120.618c-24.03 0-43.581-19.55-43.581-43.581s19.551-43.581 43.581-43.581 43.58 19.55 43.58 43.581-19.55 43.581-43.58 43.581zm0-57.161c-7.488 0-13.581 6.092-13.581 13.581 0 7.488 6.093 13.581 13.581 13.581s13.58-6.092 13.58-13.581-6.092-13.581-13.58-13.581z" fill="#ffb26b" data-original="#000000" style="" class=""/></g><g><path d="m67.323 181.289-28.76-8.54c14.52-48.893 45.016-92.869 85.871-123.826 42.24-32.005 92.649-48.923 145.78-48.923 38.423 0 75.173 8.765 109.229 26.052l-13.58 26.751c-29.808-15.131-61.989-22.803-95.649-22.803-46.535 0-90.68 14.812-127.661 42.834-35.8 27.127-62.517 65.643-75.23 108.455z" fill="#ffb26b" data-original="#000000" style="" class=""/></g><g><path d="m339.098 473.284-8.539-28.759c42.812-12.713 81.328-39.43 108.455-75.23 28.022-36.982 42.834-81.127 42.834-127.662 0-37.226-9.802-73.833-28.347-105.865l25.963-15.031c21.186 36.594 32.384 78.399 32.384 120.896 0 53.131-16.917 103.541-48.923 145.78-30.958 40.856-74.934 71.352-123.827 85.871z" fill="#ffb26b" data-original="#000000" style="" class=""/></g><g><path d="m201.33 473.284c-38.304-11.375-73.563-32.399-101.965-60.801s-49.427-63.661-60.801-101.965l28.759-8.54c9.957 33.532 28.373 64.409 53.255 89.292 24.883 24.883 55.76 43.298 89.292 53.256z" fill="#ffb26b" data-original="#000000" style="" class=""/></g><g><path d="m270.214 511.847c-24.03 0-43.58-19.55-43.58-43.581s19.55-43.581 43.58-43.581 43.581 19.55 43.581 43.581-19.551 43.581-43.581 43.581zm0-57.161c-7.488 0-13.58 6.092-13.58 13.581 0 7.488 6.092 13.581 13.58 13.581s13.581-6.092 13.581-13.581-6.093-13.581-13.581-13.581z" fill="#ffb26b" data-original="#000000" style="" class=""/></g><g><path d="m43.581 285.214c-24.03 0-43.581-19.55-43.581-43.58s19.551-43.581 43.581-43.581 43.581 19.55 43.581 43.581-19.551 43.58-43.581 43.58zm0-57.161c-7.488 0-13.581 6.092-13.581 13.581s6.093 13.581 13.581 13.581 13.581-6.092 13.581-13.581-6.093-13.581-13.581-13.581z" fill="#ffb26b" data-original="#000000" style="" class=""/></g></g></g></svg>
