<?xml version="1.0" encoding="UTF-8" standalone="no"?><!-- Generator: Gravit.io --><svg xmlns="http://www.w3.org/2000/svg" xmlns:xlink="http://www.w3.org/1999/xlink" style="isolation:isolate" viewBox="0 0 1280 1024" width="1280pt" height="1024pt"><defs><clipPath id="_clipPath_oURrB1OVE0FpvrFwDr0AdVEiQ1Evr1c2"><rect width="1280" height="1024"/></clipPath></defs><g clip-path="url(#_clipPath_oURrB1OVE0FpvrFwDr0AdVEiQ1Evr1c2)"><rect x="0" y="0" width="1280" height="1024" transform="matrix(1,0,0,1,0,0)" fill="rgb(255,183,0)"/><g><g><path d=" M 586.829 529.702 C 572.96 496.242 588.865 457.816 622.325 443.946 C 655.786 430.077 694.212 445.982 708.081 479.443 C 721.951 512.903 706.045 551.329 672.585 565.199 C 639.124 579.068 600.698 563.163 586.829 529.702 Z " fill="rgb(0,0,0)"/><path d=" M 728.059 441.948 C 740.5 441.948 750.622 431.826 750.622 419.385 C 750.622 406.943 740.5 396.821 728.059 396.821 C 715.618 396.821 705.496 406.943 705.496 419.385 C 705.496 431.826 715.617 441.948 728.059 441.948 Z " fill="rgb(0,0,0)"/><path d=" M 581.304 417.208 C 600.45 402.701 623.306 395.032 647.398 395.032 C 664.825 395.032 681.486 399.004 696.918 406.838 L 703.949 392.988 C 686.318 384.038 667.291 379.5 647.398 379.5 C 619.891 379.5 593.792 388.258 571.924 404.829 C 550.772 420.857 534.983 443.624 527.466 468.938 L 542.356 473.359 C 548.937 451.194 562.769 431.253 581.304 417.208 L 581.304 417.208 Z " fill="rgb(0,0,0)"/><path d=" M 755.734 442.01 L 742.292 449.792 C 751.893 466.376 756.968 485.329 756.968 504.602 C 756.968 528.694 749.299 551.55 734.792 570.696 C 720.747 589.231 700.806 603.063 678.641 609.645 L 683.062 624.535 C 708.376 617.018 731.143 601.229 747.171 580.077 C 763.742 558.208 772.5 532.109 772.5 504.602 C 772.5 482.6 766.702 460.956 755.734 442.01 L 755.734 442.01 Z " fill="rgb(0,0,0)"/><path d=" M 542.355 535.844 L 527.466 540.265 C 533.354 560.096 544.239 578.351 558.944 593.056 C 573.649 607.76 591.904 618.646 611.735 624.534 L 616.156 609.645 C 598.796 604.489 582.81 594.955 569.927 582.072 C 557.045 569.19 547.51 553.204 542.355 535.844 L 542.355 535.844 Z " fill="rgb(0,0,0)"/><path d=" M 647.398 599.373 C 634.957 599.373 624.836 609.495 624.836 621.937 C 624.836 634.378 634.957 644.5 647.398 644.5 C 659.839 644.5 669.962 634.378 669.962 621.937 C 669.962 609.495 659.839 599.373 647.398 599.373 Z " fill="rgb(0,0,0)"/><circle vector-effect="non-scaling-stroke" cx="530.0632707366244" cy="504.6016121973708" r="22.563270736624986" fill="rgb(0,0,0)"/></g></g></g></svg>