<?xml version="1.0" encoding="UTF-8" standalone="no"?><!-- Generator: Gravit.io --><svg xmlns="http://www.w3.org/2000/svg" xmlns:xlink="http://www.w3.org/1999/xlink" style="isolation:isolate" viewBox="0 0 1920 1200" width="1920pt" height="1200pt"><defs><clipPath id="_clipPath_YS63u3RuQQ4q4hSSLaWnev1BG9TJ0ujD"><rect width="1920" height="1200"/></clipPath></defs><g clip-path="url(#_clipPath_YS63u3RuQQ4q4hSSLaWnev1BG9TJ0ujD)"><rect x="0" y="0" width="1920" height="1200" transform="matrix(1,0,0,1,0,0)" fill="rgb(255,183,0)"/><g><g><path d=" M 889.574 623.447 C 871.203 579.128 892.27 528.232 936.59 509.861 C 980.909 491.491 1031.805 512.558 1050.176 556.877 C 1068.546 601.197 1047.479 652.093 1003.159 670.463 C 958.84 688.834 907.944 667.766 889.574 623.447 Z " fill="rgb(0,0,0)"/><path d=" M 1076.637 507.214 C 1093.115 507.214 1106.522 493.807 1106.522 477.328 C 1106.522 460.849 1093.115 447.442 1076.637 447.442 C 1060.158 447.442 1046.751 460.849 1046.751 477.328 C 1046.751 493.807 1060.157 507.214 1076.637 507.214 Z " fill="rgb(0,0,0)"/><path d=" M 882.256 474.446 C 907.616 455.23 937.888 445.073 969.799 445.073 C 992.882 445.073 1014.95 450.334 1035.39 460.71 L 1044.703 442.365 C 1021.349 430.511 996.148 424.5 969.799 424.5 C 933.365 424.5 898.797 436.101 869.831 458.049 C 841.815 479.278 820.902 509.434 810.945 542.963 L 830.667 548.819 C 839.385 519.461 857.706 493.048 882.256 474.446 L 882.256 474.446 Z " fill="rgb(0,0,0)"/><path d=" M 1113.293 507.296 L 1095.489 517.604 C 1108.206 539.57 1114.927 564.673 1114.927 590.201 C 1114.927 622.112 1104.77 652.384 1085.554 677.745 C 1066.952 702.295 1040.539 720.616 1011.181 729.334 L 1017.037 749.055 C 1050.566 739.099 1080.722 718.186 1101.951 690.169 C 1123.899 661.204 1135.5 626.635 1135.5 590.201 C 1135.5 561.058 1127.82 532.39 1113.293 507.296 L 1113.293 507.296 Z " fill="rgb(0,0,0)"/><path d=" M 830.667 631.582 L 810.945 637.438 C 818.745 663.705 833.162 687.884 852.64 707.36 C 872.116 726.837 896.295 741.255 922.562 749.055 L 928.418 729.333 C 905.424 722.505 884.25 709.876 867.186 692.813 C 850.124 675.749 837.495 654.576 830.667 631.582 L 830.667 631.582 Z " fill="rgb(0,0,0)"/><path d=" M 969.799 715.729 C 953.321 715.729 939.914 729.135 939.914 745.614 C 939.914 762.093 953.321 775.5 969.799 775.5 C 986.278 775.5 999.685 762.094 999.685 745.614 C 999.685 729.135 986.278 715.729 969.799 715.729 Z " fill="rgb(0,0,0)"/><circle vector-effect="non-scaling-stroke" cx="814.3856906737939" cy="590.2006259670823" r="29.885690673793988" fill="rgb(0,0,0)"/></g></g></g></svg>