<?xml version="1.0" encoding="UTF-8" standalone="no"?><!-- Generator: Gravit.io --><svg xmlns="http://www.w3.org/2000/svg" xmlns:xlink="http://www.w3.org/1999/xlink" style="isolation:isolate" viewBox="0 0 1920 1080" width="1920pt" height="1080pt"><defs><clipPath id="_clipPath_aYlhtHASCgS5uUzWO5Eu18dH1OQBmmQR"><rect width="1920" height="1080"/></clipPath></defs><g clip-path="url(#_clipPath_aYlhtHASCgS5uUzWO5Eu18dH1OQBmmQR)"><rect x="0" y="0" width="1920" height="1080" transform="matrix(1,0,0,1,0,0)" fill="rgb(255,183,0)"/><g><g><path d=" M 889.574 563.447 C 871.203 519.128 892.27 468.232 936.59 449.861 C 980.909 431.491 1031.805 452.558 1050.176 496.877 C 1068.546 541.197 1047.479 592.093 1003.159 610.463 C 958.84 628.834 907.944 607.766 889.574 563.447 Z " fill="rgb(0,0,0)"/><path d=" M 1076.637 447.214 C 1093.115 447.214 1106.522 433.807 1106.522 417.328 C 1106.522 400.849 1093.115 387.442 1076.637 387.442 C 1060.158 387.442 1046.751 400.849 1046.751 417.328 C 1046.751 433.807 1060.157 447.214 1076.637 447.214 Z " fill="rgb(0,0,0)"/><path d=" M 882.256 414.446 C 907.616 395.23 937.888 385.073 969.799 385.073 C 992.882 385.073 1014.95 390.334 1035.39 400.71 L 1044.703 382.365 C 1021.349 370.511 996.148 364.5 969.799 364.5 C 933.365 364.5 898.797 376.101 869.831 398.049 C 841.815 419.278 820.902 449.434 810.945 482.963 L 830.667 488.819 C 839.385 459.461 857.706 433.048 882.256 414.446 L 882.256 414.446 Z " fill="rgb(0,0,0)"/><path d=" M 1113.293 447.296 L 1095.489 457.604 C 1108.206 479.57 1114.927 504.673 1114.927 530.201 C 1114.927 562.112 1104.77 592.384 1085.554 617.745 C 1066.952 642.295 1040.539 660.616 1011.181 669.334 L 1017.037 689.055 C 1050.566 679.099 1080.722 658.186 1101.951 630.169 C 1123.899 601.204 1135.5 566.635 1135.5 530.201 C 1135.5 501.058 1127.82 472.39 1113.293 447.296 L 1113.293 447.296 Z " fill="rgb(0,0,0)"/><path d=" M 830.667 571.582 L 810.945 577.438 C 818.745 603.705 833.162 627.884 852.64 647.36 C 872.116 666.837 896.295 681.255 922.562 689.055 L 928.418 669.333 C 905.424 662.505 884.25 649.876 867.186 632.813 C 850.124 615.749 837.495 594.576 830.667 571.582 L 830.667 571.582 Z " fill="rgb(0,0,0)"/><path d=" M 969.799 655.729 C 953.321 655.729 939.914 669.135 939.914 685.614 C 939.914 702.093 953.321 715.5 969.799 715.5 C 986.278 715.5 999.685 702.094 999.685 685.614 C 999.685 669.135 986.278 655.729 969.799 655.729 Z " fill="rgb(0,0,0)"/><circle vector-effect="non-scaling-stroke" cx="814.3856906737938" cy="530.2006259670827" r="29.885690673793988" fill="rgb(0,0,0)"/></g></g></g></svg>