<?xml version="1.0" encoding="UTF-8" standalone="no"?><!-- Generator: Gravit.io --><svg xmlns="http://www.w3.org/2000/svg" xmlns:xlink="http://www.w3.org/1999/xlink" style="isolation:isolate" viewBox="0 0 2560 1440" width="2560pt" height="1440pt"><defs><clipPath id="_clipPath_7VI41bAxrmPmQ8Hp1o46VdnpGZGaMrxl"><rect width="2560" height="1440"/></clipPath></defs><g clip-path="url(#_clipPath_7VI41bAxrmPmQ8Hp1o46VdnpGZGaMrxl)"><rect x="0" y="0" width="2560" height="1440" transform="matrix(1,0,0,1,0,0)" fill="rgb(255,183,0)"/><g><g><path d=" M 1209.574 743.447 C 1191.203 699.128 1212.27 648.232 1256.59 629.861 C 1300.909 611.491 1351.805 632.558 1370.176 676.877 C 1388.546 721.197 1367.479 772.093 1323.159 790.463 C 1278.84 808.834 1227.944 787.766 1209.574 743.447 Z " fill="rgb(0,0,0)"/><path d=" M 1396.637 627.214 C 1413.115 627.214 1426.522 613.807 1426.522 597.328 C 1426.522 580.849 1413.115 567.442 1396.637 567.442 C 1380.158 567.442 1366.751 580.849 1366.751 597.328 C 1366.751 613.807 1380.157 627.214 1396.637 627.214 Z " fill="rgb(0,0,0)"/><path d=" M 1202.256 594.446 C 1227.616 575.23 1257.888 565.073 1289.799 565.073 C 1312.882 565.073 1334.95 570.334 1355.39 580.71 L 1364.703 562.365 C 1341.349 550.511 1316.148 544.5 1289.799 544.5 C 1253.365 544.5 1218.797 556.101 1189.831 578.049 C 1161.815 599.278 1140.902 629.434 1130.945 662.963 L 1150.667 668.819 C 1159.385 639.461 1177.706 613.048 1202.256 594.446 L 1202.256 594.446 Z " fill="rgb(0,0,0)"/><path d=" M 1433.293 627.296 L 1415.489 637.604 C 1428.206 659.57 1434.927 684.673 1434.927 710.201 C 1434.927 742.112 1424.77 772.384 1405.554 797.745 C 1386.952 822.295 1360.539 840.616 1331.181 849.334 L 1337.037 869.055 C 1370.566 859.099 1400.722 838.186 1421.951 810.169 C 1443.899 781.204 1455.5 746.635 1455.5 710.201 C 1455.5 681.058 1447.82 652.39 1433.293 627.296 L 1433.293 627.296 Z " fill="rgb(0,0,0)"/><path d=" M 1150.667 751.582 L 1130.945 757.438 C 1138.745 783.705 1153.162 807.884 1172.64 827.36 C 1192.116 846.837 1216.295 861.255 1242.562 869.055 L 1248.418 849.333 C 1225.424 842.505 1204.25 829.876 1187.186 812.813 C 1170.124 795.749 1157.495 774.576 1150.667 751.582 L 1150.667 751.582 Z " fill="rgb(0,0,0)"/><path d=" M 1289.799 835.729 C 1273.321 835.729 1259.914 849.135 1259.914 865.614 C 1259.914 882.093 1273.321 895.5 1289.799 895.5 C 1306.278 895.5 1319.685 882.094 1319.685 865.614 C 1319.685 849.135 1306.278 835.729 1289.799 835.729 Z " fill="rgb(0,0,0)"/><circle vector-effect="non-scaling-stroke" cx="1134.385690673794" cy="710.2006259670825" r="29.885690673793988" fill="rgb(0,0,0)"/></g></g></g></svg>